            <svg
              width="36"
              height="36"
              viewBox="0 0 24 23"
              fill="none"
              xmlns="http://www.w3.org/2000/svg"
            >
              <rect y="3" width="22" height="18" rx="3" fill="#014778" />
              <path
                d="M4.67361 17.2513H17.4514C17.8906 17.2513 18.25 16.8919 18.25 16.4527C18.25 16.0135 17.8906 15.6541 17.4514 15.6541H4.67361C4.23438 15.6541 3.875 16.0135 3.875 16.4527C3.875 16.8919 4.23438 17.2513 4.67361 17.2513ZM4.67361 13.2582H17.4514C17.8906 13.2582 18.25 12.8989 18.25 12.4596C18.25 12.0204 17.8906 11.661 17.4514 11.661H4.67361C4.23438 11.661 3.875 12.0204 3.875 12.4596C3.875 12.8989 4.23438 13.2582 4.67361 13.2582ZM3.875 8.46658C3.875 8.90582 4.23438 9.26519 4.67361 9.26519H17.4514C17.8906 9.26519 18.25 8.90582 18.25 8.46658C18.25 8.02734 17.8906 7.66797 17.4514 7.66797H4.67361C4.23438 7.66797 3.875 8.02734 3.875 8.46658Z"
                fill="white"
              />
            </svg>